<svg xmlns="http://www.w3.org/2000/svg" viewBox="0 0 64 64" fill="none" stroke="#1FA3EC" stroke-width="2.5" stroke-linecap="round" stroke-linejoin="round">
  <!-- Bulb -->
  <path d="M32 6C22.06 6 14 14.06 14 24c0 6.63 3.58 12.42 8.92 15.56A4 4 0 0 1 25 43v3a4 4 0 0 0 4 4h6a4 4 0 0 0 4-4v-3a4 4 0 0 1 2.08-3.44C46.42 36.42 50 30.63 50 24c0-9.94-8.06-18-18-18z"/>
  <!-- Filament -->
  <path d="M28 34v-8l4 4 4-4v8" stroke-width="2"/>
  <!-- Base lines -->
  <line x1="25" y1="50" x2="39" y2="50"/>
  <line x1="27" y1="54" x2="37" y2="54"/>
  <!-- Rays -->
  <line x1="32" y1="0" x2="32" y2="3" stroke-width="2"/>
  <line x1="52" y1="10" x2="50" y2="12" stroke-width="2"/>
  <line x1="58" y1="24" x2="55" y2="24" stroke-width="2"/>
  <line x1="12" y1="10" x2="14" y2="12" stroke-width="2"/>
  <line x1="6" y1="24" x2="9" y2="24" stroke-width="2"/>
</svg>
